<svg xmlns="http://www.w3.org/2000/svg" viewBox="0 0 100 100">
  <path d="M 50 85 C 10 60, 10 30, 20 20 L 35 35 C 40 25, 60 25, 65 35 L 80 20 C 90 30, 90 60, 50 85 Z" fill="#FF8C00" />
  <path d="M 50 85 C 20 65, 25 45, 35 35 Q 50 25 65 35 C 75 45, 80 65, 50 85 Z" fill="#FFE4B5" />
  <!-- Ears inner -->
  <path d="M 23 25 L 32 35 C 30 30, 25 28, 23 25 Z" fill="#FFE4B5" />
  <path d="M 77 25 L 68 35 C 70 30, 75 28, 77 25 Z" fill="#FFE4B5" />
  <!-- Nose -->
  <circle cx="50" cy="65" r="5" fill="#000" />
  <!-- Eyes -->
  <path d="M 35 50 Q 40 45 45 50" fill="none" stroke="#000" stroke-width="3" stroke-linecap="round" />
  <path d="M 55 50 Q 60 45 65 50" fill="none" stroke="#000" stroke-width="3" stroke-linecap="round" />
  <!-- Blushes -->
  <circle cx="32" cy="55" r="4" fill="#FFB6C1" opacity="0.8" />
  <circle cx="68" cy="55" r="4" fill="#FFB6C1" opacity="0.8" />
</svg>
